PathFileType	4	(X/Y/Z)	Walk6.trc
DataRate	CameraRate	NumFrames	NumMarkers	Units	OrigDataRate	OrigDataStartFrame	OrigNumFrames
200.000000	200.000000	5	58	mm	200.000000	474	716
Frame#	Times		RCAR		LMT1		RFHD		LTB2		LFHD		LTB3		RUA1		LMT5		LTB4		RElbow		RASI		RFA1		LACR1		LToe		RBHD		LUA1		LASI		RACR1		LTH1		LTH3		RTH3		LCAR		RWRU		LTH2		RLFC		C7		RBack		STRN		LElbow		RTH4		RTH2		CLAV		LTH4		RMT1		LLFC		RWRR		LWRR		RTB4		RTB3		LFA1		LPSI		RPSI		RTB2		RToe		LTB1		RTB1		LWRU		RTH1		LElbowM		LMMAL		LBHD		T10		RLMAL		RMMAL		RCAL		RMT5		LCAL		RElbowM
			X1	Y1	Z1	X2	Y2	Z2	X3	Y3	Z3	X4	Y4	Z4	X5	Y5	Z5	X6	Y6	Z6	X7	Y7	Z7	X8	Y8	Z8	X9	Y9	Z9	X10	Y10	Z10	X11	Y11	Z11	X12	Y12	Z12	X13	Y13	Z13	X14	Y14	Z14	X15	Y15	Z15	X16	Y16	Z16	X17	Y17	Z17	X18	Y18	Z18	X19	Y19	Z19	X20	Y20	Z20	X21	Y21	Z21	X22	Y22	Z22	X23	Y23	Z23	X24	Y24	Z24	X25	Y25	Z25	X26	Y26	Z26	X27	Y27	Z27	X28	Y28	Z28	X29	Y29	Z29	X30	Y30	Z30	X31	Y31	Z31	X32	Y32	Z32	X33	Y33	Z33	X34	Y34	Z34	X35	Y35	Z35	X36	Y36	Z36	X37	Y37	Z37	X38	Y38	Z38	X39	Y39	Z39	X40	Y40	Z40	X41	Y41	Z41	X42	Y42	Z42	X43	Y43	Z43	X44	Y44	Z44	X45	Y45	Z45	X46	Y46	Z46	X47	Y47	Z47	X48	Y48	Z48	X49	Y49	Z49	X50	Y50	Z50	X51	Y51	Z51	X52	Y52	Z52	X53	Y53	Z53	X54	Y54	Z54	X55	Y55	Z55	X56	Y56	Z56	X57	Y57	Z57	X58	Y58	Z58

474	2.37	-194.97	757.27	279.38	-179.85	28.669	-5.6077	-42.253	1602.6	16.709	-224.68	248.34	-105.84	-59.373	1596.4	-76.48	-230.14	162.14	-48.856	-197.28	1180.7	233.87	-207.51	24.088	-86.707	-206.56	244.62	-47.368	-254.39	1063.7	251.01	-53.667	975.28	141.98	-264.56	917.27	264.19	-141.07	1378.4	-164.89	-108.22	22.859	-31.992	-188.11	1547.8	62.891	-121.35	1203.1	-264.97	-32.788	960.09	-147.42	-164.69	1366.7	147.43	-137.59	748.53	-228.67	-174.84	594.51	-164.32	-18.23	593.08	177.43	58.557	840.23	-294.61	-253.95	807.14	268.58	-101.82	670.44	-172.52	14.291	518.14	157.42	-227.15	1414.8	-6.9787	-285.97	1313.7	87.372	-28.961	1235.3	3.0418	-133.89	1077	-301.92	-56.717	666.96	195.67	-3.7773	695.36	196.29	-88.604	1339.2	-7.8502	-157.23	673.96	-191.27	80.556	52.601	92.191	-198.46	474.55	-130.49	-194.51	811.11	229.9	25.879	876.72	-254.23	41.409	274.37	101.23	20.664	192.47	104.63	-79.126	948.27	-311.72	-284.84	963.2	-62.794	-291.57	963.91	26.589	8.9541	283.42	154.46	128.5	63.225	133.74	-182.58	328.17	-47.975	61.952	358.76	104.41	-14.036	849.23	-309.23	-93.714	743.89	216.67	-170.62	1039.2	-236.33	-279.79	64.253	9.9931	-207.34	1531.9	-76.147	-294.93	1148.9	-30.375	-40.038	85.825	124.23	-8.9544	90.77	46.646	-97.015	50.826	75.736	38.126	43.211	153.66	-357.41	38.754	-42.615	-262.28	1038.8	156.13
475	2.375	-192.62	756.64	279.87	-179.75	28.7	-5.6098	-36.348	1601.9	17.213	-223.85	248.46	-105.73	-53.545	1595.8	-75.969	-229.54	162.25	-48.79	-192.89	1180	233.98	-207.56	24.09	-86.628	-205.58	244.62	-47.327	-250.6	1063.3	250.72	-47.915	974.65	142.14	-261.47	916.87	263.8	-134.83	1377.9	-164.44	-108.2	22.847	-32.131	-182.17	1546.9	63.44	-113.85	1202.9	-264.61	-27.639	959.08	-147.41	-159.1	1366	147.73	-133.62	748.05	-228.64	-171.95	594.37	-164.1	-12.25	592.85	177.2	69.09	842.09	-293.77	-251.34	806.63	268.14	-98.413	669.68	-172.35	19.939	517.68	157.1	-221.31	1414.2	-6.7669	-280.39	1313.1	87.348	-23.234	1234.5	3.4061	-125.73	1076.9	-302.01	-50.411	666.77	195.86	2.5706	695.06	196.14	-82.8	1338.5	-7.4949	-153.79	673.66	-191.15	102.01	54.041	93.495	-196.45	474.54	-130.33	-191.17	810.45	230.39	35.919	878.32	-253.55	54.531	274.57	101.52	36.93	191.95	105.33	-69.704	948.58	-311.48	-279.61	962.54	-61.969	-285.98	963.25	27.422	21.904	282.54	154.76	149.58	66.36	134.93	-181.22	328.06	-47.968	71.854	359.68	104.3	-3.6021	850.24	-308.52	-87.032	743.75	217.33	-162.5	1038.7	-236.64	-279.56	64.554	10.186	-201.5	1531.3	-75.609	-289.33	1148.3	-30.312	-19.765	83.196	125.27	11.19	89.018	47.691	-75.438	46.255	76.804	59.865	43.183	154.91	-357.35	39.344	-42.328	-257.79	1038.3	155.82
476	2.38	-190.21	756	280.36	-179.64	28.733	-5.6072	-30.436	1601.1	17.725	-222.98	248.58	-105.61	-47.707	1595.1	-75.451	-228.92	162.36	-48.71	-188.45	1179.4	234.11	-207.61	24.094	-86.537	-204.55	244.62	-47.278	-246.74	1062.8	250.43	-42.146	973.98	142.35	-258.31	916.45	263.42	-128.61	1377.3	-163.98	-108.18	22.834	-32.283	-176.23	1546.1	63.996	-106.36	1202.7	-264.24	-22.451	958.06	-147.39	-153.48	1365.2	148.04	-129.61	747.57	-228.6	-169	594.23	-163.88	-6.4466	592.46	177	79.507	843.88	-292.92	-248.66	806.12	267.72	-94.949	668.94	-172.2	25.388	517.06	156.81	-215.48	1413.5	-6.5457	-274.8	1312.4	87.356	-17.484	1233.7	3.7538	-117.59	1076.7	-302.07	-44.188	666.47	196.06	8.8489	694.6	195.92	-76.991	1337.7	-7.14	-150.3	673.35	-191.03	123.21	55.82	94.658	-194.36	474.54	-130.15	-187.8	809.76	230.88	45.848	879.85	-252.84	67.467	274.92	101.81	53.009	191.68	106.01	-60.336	948.86	-311.21	-274.36	961.84	-61.135	-280.33	962.54	28.269	34.688	281.82	155.07	170.39	69.748	135.96	-179.8	327.94	-47.949	81.546	360.64	104.22	6.7239	851.19	-307.78	-80.337	743.54	217.98	-154.41	1038.1	-236.93	-279.31	64.877	10.399	-195.66	1530.6	-75.066	-283.73	1147.7	-30.212	0.3952	80.96	126.27	31.156	87.664	48.69	-53.959	42.16	77.858	81.426	43.473	156.04	-357.28	39.972	-42.009	-253.25	1037.9	155.52
477	2.385	-187.74	755.34	280.84	-179.53	28.768	-5.5995	-24.515	1600.2	18.245	-222.07	248.72	-105.47	-41.862	1594.4	-74.928	-228.26	162.49	-48.615	-183.96	1178.7	234.24	-207.67	24.101	-86.435	-203.48	244.63	-47.22	-242.83	1062.3	250.15	-36.357	973.3	142.6	-255.09	916.01	263.06	-122.41	1376.6	-163.52	-108.16	22.818	-32.445	-170.29	1545.2	64.558	-98.881	1202.4	-263.85	-17.225	957.04	-147.35	-147.83	1364.4	148.36	-125.54	747.09	-228.53	-165.96	594.09	-163.65	-0.81305	591.93	176.84	89.805	845.6	-292.04	-245.9	805.6	267.33	-91.418	668.2	-172.06	30.659	516.28	156.58	-209.66	1412.7	-6.3138	-269.18	1311.8	87.397	-11.714	1232.8	4.0876	-109.45	1076.5	-302.1	-38.05	666.07	196.29	15.054	693.98	195.65	-71.176	1337	-6.7841	-146.73	673.03	-190.89	144.07	57.926	95.662	-192.19	474.53	-129.95	-184.42	809.06	231.37	55.667	881.3	-252.11	80.196	275.4	102.1	68.863	191.66	106.67	-51.025	949.11	-310.93	-269.09	961.11	-60.294	-274.62	961.78	29.127	47.29	281.25	155.38	190.88	73.372	136.8	-178.32	327.81	-47.917	91.028	361.62	104.16	16.942	852.1	-307.01	-73.636	743.27	218.61	-146.33	1037.6	-237.19	-279.03	65.222	10.628	-189.81	1529.8	-74.518	-278.11	1147.1	-30.076	20.383	79.123	127.22	50.882	86.712	49.632	-32.65	38.548	78.889	102.76	44.074	157.02	-357.21	40.642	-41.662	-248.66	1037.4	155.26
478	2.39	-185.21	754.67	281.31	-179.41	28.805	-5.5866	-18.586	1599.3	18.77	-221.11	248.86	-105.32	-36.008	1593.6	-74.4	-227.57	162.63	-48.506	-179.41	1178	234.39	-207.74	24.112	-86.322	-202.35	244.64	-47.153	-238.85	1061.8	249.88	-30.544	972.6	142.89	-251.79	915.56	262.73	-116.23	1375.9	-163.05	-108.14	22.798	-32.616	-164.35	1544.2	65.129	-91.426	1202.1	-263.43	-11.964	956.02	-147.3	-142.16	1363.6	148.69	-121.41	746.62	-228.43	-162.85	593.94	-163.42	4.6595	591.24	176.74	99.985	847.25	-291.15	-243.07	805.07	266.97	-87.814	667.46	-171.92	35.774	515.36	156.42	-203.84	1412	-6.0701	-263.55	1311.1	87.47	-5.9252	1231.9	4.4108	-101.32	1076.3	-302.1	-31.994	665.56	196.53	21.184	693.2	195.31	-65.356	1336.1	-6.4256	-143.09	672.71	-190.73	164.55	60.34	96.492	-189.94	474.52	-129.73	-181.01	808.33	231.85	65.375	882.69	-251.36	92.698	276.03	102.4	84.454	191.9	107.31	-41.774	949.34	-310.62	-263.78	960.34	-59.444	-268.86	960.98	29.998	59.694	280.85	155.68	211	77.207	137.44	-176.78	327.69	-47.871	100.3	362.63	104.11	27.052	852.96	-306.23	-66.938	742.94	219.23	-138.28	1037	-237.42	-278.73	65.589	10.871	-183.96	1529.1	-73.966	-272.49	1146.4	-29.904	40.135	77.683	128.13	70.303	86.155	50.507	-11.586	35.42	79.89	123.8	44.972	157.85	-357.12	41.353	-41.29	-244.01	1036.9	155.01
